<svg width="402" height="108" viewBox="0 0 402 108" fill="none" xmlns="http://www.w3.org/2000/svg">
<path d="M17.9544 80.53C15.6144 80.53 13.8144 79.99 12.5544 78.91C11.2344 77.89 10.3344 77.08 9.85441 76.48L3.37441 76.84C3.07441 76.84 2.68441 76.48 2.20441 75.76C1.66441 75.1 1.21441 74.35 0.854414 73.51C0.434414 72.73 0.224414 72.19 0.224414 71.89C0.224414 71.77 0.284414 71.71 0.404413 71.71C2.20441 71.83 4.06441 71.92 5.98441 71.98C7.90441 72.04 9.88441 72.07 11.9244 72.07C14.2044 72.07 16.5144 72.01 18.8544 71.89C21.1944 71.83 23.5644 71.74 25.9644 71.62C27.5844 68.56 29.0244 64.75 30.2844 60.19C31.6044 55.57 32.7444 50.56 33.7044 45.16C34.7244 39.7 35.5644 34.15 36.2244 28.51C36.9444 22.87 37.4844 17.47 37.8444 12.31C34.1244 13.15 30.6144 14.2 27.3144 15.46C24.0744 16.72 21.3144 18.07 19.0344 19.51H18.9444C18.8244 19.51 18.7644 19.3 18.7644 18.88C18.7644 18.34 18.8244 17.68 18.9444 16.9C19.1244 16.12 19.3044 15.43 19.4844 14.83C19.7244 14.17 19.9344 13.81 20.1144 13.75C22.2144 12.85 24.8244 12.01 27.9444 11.23C31.1244 10.45 34.4844 9.79 38.0244 9.25L38.2944 5.74C38.3544 5.02 38.8644 4.48 39.8244 4.12C40.8444 3.76 41.8944 3.58 42.9744 3.58C44.1744 3.58 44.9544 3.79 45.3144 4.21C45.7344 4.57 45.9444 5.17 45.9444 6.01C45.9444 6.37 45.9144 6.73 45.8544 7.08999C45.7944 7.45 45.7344 7.87 45.6744 8.34999C48.0144 8.17 50.3244 8.08 52.6044 8.08C54.3444 8.08 56.1744 8.17 58.0944 8.34999C60.0744 8.53 61.7244 8.77 63.0444 9.07C64.4244 9.37 65.1144 9.73 65.1144 10.15C65.1144 10.21 65.0544 10.24 64.9344 10.24C63.6144 10.18 62.1744 10.15 60.6144 10.15C59.1144 10.09 57.5544 10.06 55.9344 10.06C54.2544 10.06 52.5144 10.15 50.7144 10.33C48.9144 10.45 47.1444 10.63 45.4044 10.87C44.9844 14.17 44.4444 17.8 43.7844 21.76C43.1844 25.72 42.4644 29.74 41.6244 33.82C40.8444 37.84 40.0344 41.65 39.1944 45.25C38.4144 48.85 37.6344 51.97 36.8544 54.61C36.4944 55.81 35.9844 57.37 35.3244 59.29C34.7244 61.15 33.9744 63.13 33.0744 65.23C32.1744 67.33 31.1244 69.34 29.9244 71.26C34.6644 70.84 39.2244 70.3 43.6044 69.64C47.9844 68.92 51.8544 68.05 55.2144 67.03H55.4844C55.7844 67.03 55.9344 67.09 55.9344 67.21C55.9344 67.63 55.1544 68.11 53.5944 68.65C52.0344 69.19 49.9044 69.76 47.2044 70.36C44.5644 71.02 41.5644 71.68 38.2044 72.34C34.9044 73 31.4844 73.6 27.9444 74.14C26.5644 76 25.0344 77.53 23.3544 78.73C21.6744 79.93 19.8744 80.53 17.9544 80.53ZM18.1344 78.46C20.1744 78.46 22.1244 77.2 23.9844 74.68C21.8244 74.98 19.6944 75.28 17.5944 75.58C15.5544 75.88 13.5744 76.12 11.6544 76.3C12.3744 76.72 13.2744 77.17 14.3544 77.65C15.3744 78.19 16.6344 78.46 18.1344 78.46ZM61.7591 107.53C60.6791 107.53 59.8691 106.9 59.3291 105.64C60.8891 102.28 62.4491 98.68 64.0091 94.84C65.6291 91 67.1591 87.07 68.5991 83.05C70.0991 79.03 71.3591 75.1 72.3791 71.26C70.6991 72.58 68.9891 74.02 67.2491 75.58C65.5091 77.14 63.8591 78.94 62.2991 80.98C60.3191 83.44 58.7891 86.35 57.7091 89.71C56.6891 93.13 56.1791 96.28 56.1791 99.16C56.1791 102.64 56.8991 105.25 58.3391 106.99C58.5191 107.17 58.6091 107.29 58.6091 107.35C58.6091 107.35 58.5791 107.35 58.5191 107.35C58.5191 107.41 58.4891 107.44 58.4291 107.44C58.1891 107.44 57.8891 107.35 57.5291 107.17C57.2291 106.99 56.9291 106.72 56.6291 106.36C55.4291 105.1 54.5291 103.57 53.9291 101.77C53.3891 100.03 53.1191 98.14 53.1191 96.1C53.1191 93.76 53.5691 91.39 54.4691 88.99C55.3691 86.59 56.6891 84.34 58.4291 82.24C60.9491 79.18 63.4391 76.63 65.8991 74.59C68.3591 72.61 70.7291 70.66 73.0091 68.74C73.9091 65.2 74.5391 61.75 74.8991 58.39C75.1991 55.75 75.3791 53.44 75.4391 51.46C75.5591 49.48 75.6191 47.74 75.6191 46.24C75.6191 45.28 75.5891 44.41 75.5291 43.63C75.4691 42.85 75.4091 42.13 75.3491 41.47L74.6291 41.65C73.6091 43.27 72.3791 45.19 70.9391 47.41C69.4991 49.63 67.9391 51.82 66.2591 53.98C64.5791 56.08 62.8991 57.85 61.2191 59.29C59.5391 60.73 57.9491 61.45 56.4491 61.45C55.1891 61.45 54.1991 61.03 53.4791 60.19C52.7591 59.29 52.3991 58.27 52.3991 57.13C52.3991 56.83 52.4591 56.44 52.5791 55.96C53.1191 53.2 54.1691 50.62 55.7291 48.22C57.3491 45.76 59.1791 43.6 61.2191 41.74C63.3191 39.88 65.3891 38.41 67.4291 37.33C69.4691 36.25 71.2091 35.71 72.6491 35.71C73.7291 35.71 74.7491 35.95 75.7091 36.43C76.7291 36.85 77.6891 37.57 78.5891 38.59C78.7691 38.77 78.8591 38.98 78.8591 39.22C78.8591 39.76 78.2891 40.27 77.1491 40.75C77.6291 41.65 77.9291 42.82 78.0491 44.26C78.2291 45.64 78.3191 47.11 78.3191 48.67C78.3191 51.25 78.1691 53.95 77.8691 56.77C77.5691 59.59 77.1791 62.44 76.6991 65.32C78.2591 63.76 79.7591 61.99 81.1991 60.01C82.6391 58.03 84.0191 55.66 85.3391 52.9C85.6991 52.18 86.0291 51.82 86.3291 51.82C86.5691 51.82 86.6891 52.03 86.6891 52.45C86.6891 53.11 86.3891 54.07 85.7891 55.33C85.2491 56.59 84.5891 57.88 83.8091 59.2C83.0291 60.52 82.2491 61.66 81.4691 62.62C80.6891 63.58 79.8491 64.54 78.9491 65.5C78.1091 66.4 77.2091 67.27 76.2491 68.11C75.4691 72.25 74.5691 76.3 73.5491 80.26C72.5291 84.22 71.5091 87.85 70.4891 91.15C69.4691 94.45 68.5391 97.21 67.6991 99.43C66.9191 101.71 66.3491 103.21 65.9891 103.93C65.2691 105.25 64.5491 106.18 63.8291 106.72C63.1091 107.26 62.4191 107.53 61.7591 107.53ZM57.6191 57.76C58.4591 57.76 59.5091 57.28 60.7691 56.32C62.0291 55.36 63.3491 54.16 64.7291 52.72C66.1091 51.22 67.4291 49.63 68.6891 47.95C70.0091 46.27 71.1491 44.71 72.1091 43.27C73.1291 41.77 73.8191 40.57 74.1791 39.67C72.9191 39.67 71.5391 40.12 70.0391 41.02C68.5991 41.86 67.1591 42.97 65.7191 44.35C64.2791 45.73 62.9291 47.17 61.6691 48.67C60.4091 50.17 59.3591 51.58 58.5191 52.9C57.7391 54.22 57.2291 55.24 56.9891 55.96C56.8091 56.38 56.7191 56.71 56.7191 56.95C56.7191 57.49 57.0191 57.76 57.6191 57.76ZM92.5482 67.39C90.3882 67.39 88.7982 66.7 87.7782 65.32C86.7582 63.88 86.2482 62.14 86.2482 60.1C86.2482 57.94 86.7582 55.3 87.7782 52.18C88.7982 49.06 89.8782 46.12 91.0182 43.36C89.9982 44.02 88.9482 44.62 87.8682 45.16C86.7882 45.7 85.8282 45.97 84.9882 45.97C84.3882 45.97 83.9382 45.82 83.6382 45.52C83.3982 45.22 83.2782 44.89 83.2782 44.53C83.2782 44.23 83.3682 43.78 83.5482 43.18C83.7282 42.58 84.0282 42.01 84.4482 41.47C84.9282 40.93 85.4982 40.66 86.1582 40.66C86.3982 40.66 86.5182 40.75 86.5182 40.93C86.5182 40.99 86.4882 41.05 86.4282 41.11C86.4282 41.11 86.4282 41.14 86.4282 41.2C86.3682 41.32 86.3382 41.44 86.3382 41.56C86.3382 41.8 86.4882 41.92 86.7882 41.92C86.9682 41.92 87.1782 41.89 87.4182 41.83C87.7182 41.77 88.0182 41.65 88.3182 41.47C88.9182 41.17 89.6082 40.81 90.3882 40.39C91.1682 39.91 92.0382 39.43 92.9982 38.95L94.3482 36.25C94.7082 35.59 95.1282 35.14 95.6082 34.9C96.0882 34.6 96.5382 34.45 96.9582 34.45C97.6182 34.45 98.1882 34.57 98.6682 34.81C99.2082 34.99 99.6882 35.23 100.108 35.53C100.768 35.23 101.458 34.96 102.178 34.72C102.958 34.42 103.708 34.21 104.428 34.09C106.708 33.25 109.078 32.59 111.538 32.11C113.998 31.57 116.428 31.3 118.828 31.3C120.148 31.3 121.498 31.48 122.878 31.84C124.258 32.2 124.948 32.77 124.948 33.55C124.948 33.79 124.708 33.91 124.228 33.91C123.268 33.91 122.158 33.79 120.898 33.55C119.698 33.31 118.498 33.19 117.298 33.19C115.798 33.19 114.358 33.28 112.978 33.46C111.598 33.58 110.308 33.79 109.108 34.09C110.068 34.51 110.848 35.23 111.448 36.25C112.108 37.27 112.438 38.56 112.438 40.12C112.438 41.8 112.018 43.81 111.178 46.15C110.398 48.49 109.318 50.89 107.938 53.35C106.618 55.81 105.088 58.12 103.348 60.28C101.608 62.38 99.8082 64.09 97.9482 65.41C96.0882 66.73 94.2882 67.39 92.5482 67.39ZM93.5382 65.5C94.7982 65.5 96.0882 64.93 97.4082 63.79C98.7882 62.65 100.138 61.21 101.458 59.47C102.778 57.73 103.948 55.93 104.968 54.07C105.448 53.23 105.988 52.09 106.588 50.65C107.248 49.21 107.788 47.68 108.208 46.06C108.688 44.44 108.928 42.97 108.928 41.65C108.928 40.45 108.658 39.46 108.118 38.68C107.638 37.84 106.708 37.42 105.328 37.42C104.668 37.42 103.828 37.6 102.808 37.96C101.788 38.32 100.708 38.74 99.5682 39.22C99.3282 39.46 99.0882 39.73 98.8482 40.03C98.6682 40.27 98.5182 40.54 98.3982 40.84C97.2582 42.94 96.1182 45.28 94.9782 47.86C93.8382 50.38 92.8782 52.84 92.0982 55.24C91.3782 57.64 91.0182 59.74 91.0182 61.54C91.0182 64.18 91.8582 65.5 93.5382 65.5ZM134.997 65.23C132.777 65.23 131.277 64 130.497 61.54C129.717 59.02 129.327 55.93 129.327 52.27C129.327 50.29 129.387 48.37 129.507 46.51C129.627 44.59 129.717 43 129.777 41.74C128.817 41.62 127.887 41.44 126.987 41.2C126.147 40.9 125.487 40.6 125.007 40.3C124.947 40.72 124.707 41.59 124.287 42.91C123.867 44.17 123.357 45.64 122.757 47.32C122.217 49 121.617 50.65 120.957 52.27C120.297 53.89 119.667 55.24 119.067 56.32C118.467 57.34 117.927 57.85 117.447 57.85C117.207 57.85 117.087 57.67 117.087 57.31C117.087 56.83 117.297 56.17 117.717 55.33C118.917 52.87 119.997 50.35 120.957 47.77C121.917 45.19 122.787 42.52 123.567 39.76C122.967 39.52 122.517 39.1 122.217 38.5C121.977 37.84 121.857 37.12 121.857 36.34C121.857 34.18 122.157 32.41 122.757 31.03C123.417 29.65 124.137 28.63 124.917 27.97C125.697 27.25 126.297 26.89 126.717 26.89C127.437 26.89 127.797 27.49 127.797 28.69C127.797 29.29 127.647 30.22 127.347 31.48C127.047 32.68 126.687 33.94 126.267 35.26C125.847 36.52 125.487 37.54 125.187 38.32C125.187 38.32 125.367 38.44 125.727 38.68C126.087 38.92 126.477 39.04 126.897 39.04C127.497 39.04 128.067 38.68 128.607 37.96C129.207 37.18 129.897 36.43 130.677 35.71C131.517 34.93 132.567 34.54 133.827 34.54C134.487 34.54 135.057 34.63 135.537 34.81C136.017 34.93 136.257 35.17 136.257 35.53V35.8C135.657 37.3 135.207 39.28 134.907 41.74C134.607 44.14 134.457 46.57 134.457 49.03C134.457 51.19 134.577 53.23 134.817 55.15C135.057 57.01 135.417 58.51 135.897 59.65C136.437 60.79 137.067 61.36 137.787 61.36C138.507 61.36 139.197 60.97 139.857 60.19C140.517 59.41 141.087 58.57 141.567 57.67C142.107 56.77 142.467 56.11 142.647 55.69C143.907 53.35 144.687 51.85 144.987 51.19C145.287 50.47 145.677 50.11 146.157 50.11C146.337 50.11 146.427 50.23 146.427 50.47C146.427 50.59 146.367 50.89 146.247 51.37C145.527 53.35 144.627 55.42 143.547 57.58C142.527 59.68 141.297 61.48 139.857 62.98C138.417 64.48 136.797 65.23 134.997 65.23ZM189.379 103.03C188.059 103.03 186.859 102.52 185.779 101.5C184.699 100.48 184.159 99.58 184.159 98.8C184.159 98.68 184.159 98.56 184.159 98.44C184.219 98.32 184.279 98.2 184.339 98.08C184.339 97.96 184.369 97.9 184.429 97.9H184.339C183.859 97.9 183.469 97.78 183.169 97.54C180.949 95.98 179.359 94.15 178.399 92.05C177.439 89.95 176.959 87.61 176.959 85.03C176.959 81.49 177.739 77.65 179.299 73.51C180.859 69.43 182.899 65.29 185.419 61.09C187.999 56.83 190.789 52.75 193.789 48.85C196.849 44.95 199.879 41.41 202.879 38.23C202.939 37.81 202.969 37.42 202.969 37.06C202.969 36.7 202.969 36.31 202.969 35.89C202.969 33.25 202.849 30.91 202.609 28.87C202.369 26.77 202.069 24.97 201.709 23.47C199.909 25.63 198.409 27.64 197.209 29.5C196.009 31.36 194.839 33.28 193.699 35.26C192.619 37.18 191.299 39.43 189.739 42.01C188.959 43.27 187.939 44.8 186.679 46.6C185.479 48.34 184.129 50.08 182.629 51.82C181.129 53.5 179.539 54.91 177.859 56.05C176.179 57.19 174.439 57.76 172.639 57.76C170.539 57.76 168.619 57.22 166.879 56.14C165.199 55 163.849 53.5 162.829 51.64C161.869 49.78 161.389 47.74 161.389 45.52C161.389 40.54 162.679 35.68 165.259 30.94C167.899 26.2 171.289 21.88 175.429 17.98H172.729C171.649 17.98 170.899 17.89 170.479 17.71C170.059 17.53 169.849 17.35 169.849 17.17C169.849 16.93 170.089 16.72 170.569 16.54C171.049 16.36 171.589 16.27 172.189 16.27C172.669 16.27 173.359 16.27 174.259 16.27C175.159 16.21 176.239 16.15 177.499 16.09C180.979 13.03 184.729 10.36 188.749 8.08C192.769 5.8 196.789 4.03 200.809 2.77C204.889 1.51 208.699 0.879999 212.239 0.879999C213.439 0.879999 214.549 0.999998 215.569 1.23999C216.649 1.42 217.669 1.66 218.629 1.96C219.169 2.14 219.649 2.68 220.069 3.58C220.549 4.48 220.909 5.44 221.149 6.46C221.389 7.42 221.509 8.16999 221.509 8.71V9.07C220.849 10.03 219.529 10.9 217.549 11.68C215.629 12.46 213.259 13.18 210.439 13.84C207.679 14.44 204.709 14.98 201.529 15.46C198.349 15.94 195.139 16.36 191.899 16.72C188.719 17.02 185.749 17.29 182.989 17.53C179.869 20.23 177.109 23.2 174.709 26.44C172.309 29.68 170.419 32.98 169.039 36.34C167.719 39.7 167.059 42.97 167.059 46.15C167.059 48.01 167.479 49.54 168.319 50.74C169.159 51.94 170.509 52.54 172.369 52.54C173.989 52.54 175.579 52.21 177.139 51.55C178.759 50.83 180.139 49.81 181.279 48.49C183.079 46.51 184.909 44.17 186.769 41.47C188.689 38.77 190.519 35.95 192.259 33.01C193.999 30.07 195.529 27.22 196.849 24.46C198.169 21.7 199.129 19.24 199.729 17.08C199.729 16.96 199.879 16.9 200.179 16.9C200.659 16.9 201.349 17.05 202.249 17.35C203.209 17.59 204.079 17.98 204.859 18.52C205.639 19.06 206.089 19.75 206.209 20.59C206.449 22.09 206.629 23.68 206.749 25.36C206.869 26.98 206.929 28.72 206.929 30.58C206.929 31.18 206.899 31.78 206.839 32.38C206.839 32.92 206.839 33.52 206.839 34.18C210.619 30.52 213.709 28.03 216.109 26.71C216.829 26.41 217.399 26.26 217.819 26.26C218.359 26.26 218.629 26.44 218.629 26.8C218.629 26.98 218.539 27.16 218.359 27.34C216.439 28.72 214.489 30.25 212.509 31.93C210.529 33.61 208.579 35.41 206.659 37.33C206.299 42.37 205.669 47.56 204.769 52.9C203.869 58.24 202.819 63.46 201.619 68.56C200.419 73.6 199.219 78.22 198.019 82.42C196.819 86.68 195.739 90.22 194.779 93.04C193.819 95.92 193.099 97.81 192.619 98.71C191.959 99.85 191.449 100.84 191.089 101.68C190.789 102.58 190.219 103.03 189.379 103.03ZM185.509 15.46C188.689 15.16 191.989 14.77 195.409 14.29C198.889 13.75 202.189 13.15 205.309 12.49C208.429 11.77 211.099 10.96 213.319 10.06C215.539 9.16 216.979 8.14 217.639 7C215.779 6.1 213.559 5.65 210.979 5.65C206.539 5.65 202.129 6.55 197.749 8.34999C193.369 10.15 189.289 12.52 185.509 15.46ZM185.509 95.47C187.369 91.45 189.199 87.16 190.999 82.6C192.859 78.04 194.599 73.42 196.219 68.74C197.839 64 199.189 59.32 200.269 54.7C201.409 50.08 202.189 45.7 202.609 41.56C199.549 44.86 196.669 48.37 193.969 52.09C191.329 55.75 188.959 59.44 186.859 63.16C184.819 66.88 183.199 70.48 181.999 73.96C180.859 77.5 180.289 80.8 180.289 83.86C180.289 86.26 180.679 88.45 181.459 90.43C182.299 92.41 183.649 94.09 185.509 95.47ZM228.509 73.33C227.669 73.33 226.889 73.21 226.169 72.97C223.889 72.31 222.059 71.02 220.679 69.1C219.359 67.18 218.399 64.84 217.799 62.08C217.259 59.32 216.989 56.41 216.989 53.35C216.989 51.67 217.049 49.99 217.169 48.31C217.289 46.63 217.469 44.98 217.709 43.36C218.189 39.94 218.879 36.16 219.779 32.02C220.739 27.88 221.819 23.68 223.019 19.42C224.219 15.16 225.449 11.14 226.709 7.36C227.189 6.22 227.609 5.29 227.969 4.56999C228.329 3.85 228.899 3.61 229.679 3.85C230.279 4.03 230.879 4.33 231.479 4.75C232.139 5.11 232.649 5.53 233.009 6.01C234.629 7.87 235.439 10.48 235.439 13.84C235.439 16.9 234.839 20.35 233.639 24.19C232.439 27.97 230.849 31.75 228.869 35.53C226.949 39.31 224.789 42.79 222.389 45.97C221.849 49.45 221.579 52.75 221.579 55.87C221.579 58.33 221.759 60.61 222.119 62.71C222.539 64.81 223.169 66.64 224.009 68.2C224.729 69.52 225.509 70.42 226.349 70.9C227.249 71.38 228.089 71.62 228.869 71.62C229.709 71.62 230.459 71.47 231.119 71.17C231.839 70.87 232.409 70.63 232.829 70.45C233.309 70.15 233.729 70 234.089 70C234.569 70 234.629 70.24 234.269 70.72C234.029 71.02 233.399 71.53 232.379 72.25C231.359 72.97 230.069 73.33 228.509 73.33ZM223.019 42.1C224.939 39.1 226.679 35.95 228.239 32.65C229.859 29.29 231.149 26.02 232.109 22.84C233.129 19.6 233.639 16.72 233.639 14.2C233.639 13.24 233.549 12.34 233.369 11.5C233.249 10.66 233.009 9.91 232.649 9.25C230.609 14.35 228.719 19.78 226.979 25.54C225.299 31.24 223.979 36.76 223.019 42.1ZM254.476 70.09C253.456 70.09 252.466 69.61 251.506 68.65C250.606 67.63 250.156 66.34 250.156 64.78C250.156 61.84 250.246 58.93 250.426 56.05C250.666 53.11 250.906 50.5 251.146 48.22C251.446 45.88 251.656 44.17 251.776 43.09C251.176 45.61 250.426 48.13 249.526 50.65C248.626 53.17 247.726 55.54 246.826 57.76C245.926 59.92 245.146 61.75 244.486 63.25C243.826 64.69 243.436 65.62 243.316 66.04C243.076 66.7 242.566 67.03 241.786 67.03C241.186 67.03 240.496 66.85 239.716 66.49C238.936 66.13 238.246 65.71 237.646 65.23C237.106 64.69 236.806 64.24 236.746 63.88C236.686 63.58 236.656 63.25 236.656 62.89C236.656 62.47 236.656 62.05 236.656 61.63C236.656 58.87 236.836 56.23 237.196 53.71C237.556 51.13 237.886 48.58 238.186 46.06C238.306 44.92 238.486 43.6 238.726 42.1C238.966 40.6 239.086 39.16 239.086 37.78C239.086 37.18 239.056 36.61 238.996 36.07C238.936 35.47 238.816 34.96 238.636 34.54C238.396 34.06 237.796 33.7 236.836 33.46C235.876 33.16 235.066 33.01 234.406 33.01C233.686 33.01 233.326 32.83 233.326 32.47C233.326 31.81 233.956 31.42 235.216 31.3C236.356 31.18 237.406 31.06 238.366 30.94C239.326 30.76 240.256 30.67 241.156 30.67C241.996 30.67 242.656 30.76 243.136 30.94C243.676 31.12 243.946 31.45 243.946 31.93C243.946 34.21 243.736 36.97 243.316 40.21C242.896 43.39 242.446 46.66 241.966 50.02C241.546 53.38 241.336 56.41 241.336 59.11C241.336 59.95 241.366 60.76 241.426 61.54C241.486 62.26 241.666 62.62 241.966 62.62C242.386 62.62 242.956 61.96 243.676 60.64C244.396 59.26 245.176 57.43 246.016 55.15C246.916 52.87 247.786 50.44 248.626 47.86C249.466 45.22 250.216 42.7 250.876 40.3C251.536 37.9 252.046 35.89 252.406 34.27C252.466 33.97 252.706 33.82 253.126 33.82C253.786 33.82 254.506 34.18 255.286 34.9C256.126 35.56 256.726 36.31 257.086 37.15C256.906 37.87 256.666 39.19 256.366 41.11C256.066 43.03 255.766 45.19 255.466 47.59C255.166 49.99 254.926 52.36 254.746 54.7C254.566 56.98 254.476 58.9 254.476 60.46C254.476 62.32 254.656 63.43 255.016 63.79C255.436 64.09 255.856 64.24 256.276 64.24C256.756 64.24 257.296 63.82 257.896 62.98C258.556 62.14 259.216 61.09 259.876 59.83C260.536 58.57 261.196 57.34 261.856 56.14C262.516 54.88 263.086 53.83 263.566 52.99C264.106 52.15 264.526 51.73 264.826 51.73C265.066 51.73 265.186 51.88 265.186 52.18C265.186 52.36 265.096 52.69 264.916 53.17C264.676 53.77 264.256 54.76 263.656 56.14C263.116 57.46 262.456 58.93 261.676 60.55C260.896 62.11 260.086 63.61 259.246 65.05C258.406 66.49 257.566 67.69 256.726 68.65C255.886 69.61 255.136 70.09 254.476 70.09ZM267.19 65.68C266.29 65.68 265.27 65.56 264.13 65.32C263.05 65.02 262.09 64.66 261.25 64.24C260.47 63.76 260.08 63.31 260.08 62.89C260.08 61.93 260.98 61.45 262.78 61.45C263.8 61.45 265 61.24 266.38 60.82C267.76 60.4 269.02 59.95 270.16 59.47C271.36 58.93 272.14 58.54 272.5 58.3C272.26 57.94 271.69 57.4 270.79 56.68C269.89 55.9 268.9 54.97 267.82 53.89C266.74 52.81 265.78 51.61 264.94 50.29C264.16 48.91 263.77 47.41 263.77 45.79C263.77 44.11 264.22 42.55 265.12 41.11C266.02 39.61 267.13 38.26 268.45 37.06C269.83 35.8 271.21 34.72 272.59 33.82C274.03 32.86 275.26 32.08 276.28 31.48C276.7 31.24 277.15 31.12 277.63 31.12C278.59 31.12 279.49 31.45 280.33 32.11C281.23 32.77 281.68 33.4 281.68 34C281.68 34.06 281.62 34.21 281.5 34.45C281.02 34.99 280.48 35.83 279.88 36.97C279.34 38.11 278.86 39.31 278.44 40.57C278.02 41.77 277.81 42.88 277.81 43.9C277.81 45.04 277.57 45.61 277.09 45.61C276.85 45.61 276.67 45.37 276.55 44.89C276.43 44.41 276.37 43.96 276.37 43.54C276.37 42.34 276.55 41.05 276.91 39.67C277.33 38.29 277.6 37.3 277.72 36.7C277 36.7 276.01 37.18 274.75 38.14C273.55 39.04 272.32 40.18 271.06 41.56C269.8 42.88 268.72 44.23 267.82 45.61C266.98 46.93 266.56 48.01 266.56 48.85C266.56 49.99 266.95 51.04 267.73 52C268.51 52.9 269.47 53.74 270.61 54.52C271.81 55.3 272.92 56.14 273.94 57.04C274.54 56.8 275.47 56.38 276.73 55.78C277.99 55.12 279.31 54.46 280.69 53.8C282.13 53.08 283.39 52.48 284.47 52C285.61 51.52 286.36 51.28 286.72 51.28C286.84 51.28 286.9 51.31 286.9 51.37C286.9 51.79 286.45 52.33 285.55 52.99C284.65 53.65 283.54 54.34 282.22 55.06C280.9 55.78 279.58 56.47 278.26 57.13C277 57.79 276.01 58.3 275.29 58.66C275.47 59.2 275.56 59.74 275.56 60.28C275.56 61.54 275.11 62.56 274.21 63.34C273.37 64.12 272.29 64.72 270.97 65.14C269.71 65.5 268.45 65.68 267.19 65.68ZM291.457 73.78C290.437 73.78 289.597 73.15 288.937 71.89C288.337 70.63 287.887 69.04 287.587 67.12C287.287 65.14 287.077 63.04 286.957 60.82C286.837 58.54 286.777 56.41 286.777 54.43C286.777 50.41 286.927 46.27 287.227 42.01C287.587 37.75 288.037 33.64 288.577 29.68C289.117 25.66 289.687 22 290.287 18.7C290.887 15.4 291.427 12.64 291.907 10.42C292.447 8.14 292.867 6.64 293.167 5.92C293.587 4.9 293.917 4.03 294.157 3.30999C294.457 2.59 294.907 2.23 295.507 2.23C296.467 2.23 297.397 2.62 298.297 3.4C299.257 4.18 299.737 4.9 299.737 5.56V5.74C300.097 5.25999 300.607 5.01999 301.267 5.01999C302.227 5.01999 302.977 5.5 303.517 6.46C304.117 7.42 304.537 8.53 304.777 9.79C305.077 10.99 305.227 11.98 305.227 12.76C305.227 15.1 304.747 17.71 303.787 20.59C302.827 23.41 301.597 26.29 300.097 29.23C298.597 32.11 297.007 34.9 295.327 37.6C293.647 40.24 292.087 42.58 290.647 44.62C290.407 47.02 290.197 49.45 290.017 51.91C289.837 54.37 289.747 56.83 289.747 59.29C289.747 60.61 289.777 61.87 289.837 63.07C289.957 64.27 290.077 65.41 290.197 66.49C290.497 64.63 290.917 62.53 291.457 60.19C291.997 57.85 292.567 55.54 293.167 53.26C293.767 50.92 294.337 48.82 294.877 46.96C295.477 45.1 295.957 43.75 296.317 42.91C296.917 41.47 297.697 40.45 298.657 39.85C299.677 39.25 300.637 38.95 301.537 38.95C301.897 38.95 302.197 39.46 302.437 40.48C302.677 41.5 302.857 42.79 302.977 44.35C303.157 45.91 303.307 47.53 303.427 49.21C303.547 50.83 303.637 52.24 303.697 53.44C303.817 55.6 304.087 57.13 304.507 58.03C304.927 58.93 305.377 59.47 305.857 59.65C306.337 59.83 306.727 59.95 307.027 60.01C307.567 60.01 308.167 59.53 308.827 58.57C309.547 57.55 310.237 56.38 310.897 55.06C311.617 53.74 312.277 52.6 312.877 51.64C313.477 50.62 313.957 50.11 314.317 50.11C314.497 50.11 314.587 50.26 314.587 50.56C314.587 50.8 314.497 51.19 314.317 51.73C312.397 56.29 310.717 59.71 309.277 61.99C307.837 64.27 306.307 65.41 304.687 65.41C303.367 65.41 302.407 64.84 301.807 63.7C300.907 62.14 300.277 60.43 299.917 58.57C299.557 56.65 299.257 54.7 299.017 52.72C298.837 50.74 298.507 48.88 298.027 47.14C297.967 46.78 297.817 46.6 297.577 46.6C297.397 46.6 297.217 46.78 297.037 47.14C296.917 47.5 296.737 47.95 296.497 48.49C296.317 48.91 295.957 50.02 295.417 51.82C294.937 53.56 294.397 55.69 293.797 58.21C293.197 60.67 292.687 63.28 292.267 66.04C291.847 68.74 291.637 71.26 291.637 73.6C291.637 73.72 291.577 73.78 291.457 73.78ZM291.097 41.38C292.897 38.44 294.667 35.32 296.407 32.02C298.207 28.66 299.707 25.36 300.907 22.12C302.107 18.88 302.707 15.94 302.707 13.3C302.707 11.92 302.527 10.69 302.167 9.61C301.807 8.47 301.147 7.51 300.187 6.73C300.127 6.61 300.037 6.52 299.917 6.46C299.797 6.4 299.677 6.34 299.557 6.28C297.937 11.08 296.347 16.51 294.787 22.57C293.227 28.57 291.997 34.84 291.097 41.38ZM319.448 73.78C318.488 73.78 317.678 73.18 317.018 71.98C316.418 70.84 315.938 69.37 315.578 67.57C315.278 65.71 315.068 63.73 314.948 61.63C314.828 59.47 314.768 57.4 314.768 55.42V55.33C314.108 55.03 313.478 54.76 312.878 54.52C312.278 54.22 311.708 53.98 311.168 53.8C310.808 53.62 310.628 53.38 310.628 53.08C310.628 52.54 310.958 51.94 311.618 51.28C312.338 50.62 313.088 50.29 313.868 50.29C314.048 50.29 314.318 50.35 314.678 50.47C314.678 50.53 314.738 50.56 314.858 50.56C314.978 45.7 315.308 40.84 315.848 35.98C316.388 31.06 316.988 26.5 317.648 22.3C318.368 18.04 319.028 14.47 319.628 11.59C320.288 8.65 320.798 6.76 321.158 5.92C321.578 4.9 321.908 4.03 322.148 3.30999C322.448 2.59 322.898 2.23 323.498 2.23C324.458 2.23 325.388 2.62 326.288 3.4C327.248 4.18 327.728 4.9 327.728 5.56V5.74C328.088 5.25999 328.598 5.01999 329.258 5.01999C330.218 5.01999 330.968 5.5 331.508 6.46C332.108 7.42 332.528 8.53 332.768 9.79C333.068 10.99 333.218 11.98 333.218 12.76C333.218 15.1 332.738 17.68 331.778 20.5C330.818 23.32 329.588 26.2 328.088 29.14C326.588 32.02 324.998 34.81 323.318 37.51C321.638 40.15 320.078 42.49 318.638 44.53C318.518 45.79 318.398 47.05 318.278 48.31C318.158 49.57 318.038 50.83 317.918 52.09L318.908 52.63C321.128 51.13 323.408 49.39 325.748 47.41C328.088 45.43 330.308 43.42 332.408 41.38C334.568 39.28 336.398 37.3 337.898 35.44C338.018 35.32 338.138 35.26 338.258 35.26C338.438 35.26 338.528 35.38 338.528 35.62C338.528 35.74 338.498 35.86 338.438 35.98C337.358 37.9 335.918 40 334.118 42.28C332.318 44.5 330.368 46.72 328.268 48.94C326.228 51.1 324.188 53.02 322.148 54.7C325.148 56.74 328.028 58.96 330.788 61.36C333.608 63.76 336.218 66.16 338.618 68.56C338.978 68.92 339.158 69.28 339.158 69.64C339.158 70.06 339.038 70.27 338.798 70.27C338.678 70.27 338.618 70.24 338.618 70.18C337.478 69.34 335.858 68.2 333.758 66.76C331.658 65.26 329.408 63.76 327.008 62.26C326.288 61.78 325.148 61.06 323.588 60.1C322.028 59.14 320.348 58.18 318.548 57.22H318.278C318.218 57.22 318.128 57.25 318.008 57.31C317.948 57.31 317.858 57.28 317.738 57.22V59.29C317.738 62.29 317.918 64.99 318.278 67.39C318.698 69.73 319.148 71.8 319.628 73.6C319.628 73.72 319.568 73.78 319.448 73.78ZM319.088 41.38C320.888 38.44 322.688 35.32 324.488 32.02C326.288 28.66 327.788 25.36 328.988 22.12C330.188 18.88 330.788 15.94 330.788 13.3C330.788 11.86 330.548 10.54 330.068 9.34C329.588 8.14 328.808 7.15 327.728 6.37C327.668 6.37 327.608 6.34 327.548 6.28C325.928 11.08 324.338 16.51 322.778 22.57C321.218 28.63 319.988 34.9 319.088 41.38ZM346.552 67.39C344.392 67.39 342.802 66.7 341.782 65.32C340.762 63.88 340.252 62.14 340.252 60.1C340.252 57.94 340.762 55.3 341.782 52.18C342.802 49.06 343.882 46.12 345.022 43.36C344.002 44.02 342.952 44.62 341.872 45.16C340.792 45.7 339.832 45.97 338.992 45.97C338.392 45.97 337.942 45.82 337.642 45.52C337.402 45.22 337.282 44.89 337.282 44.53C337.282 44.23 337.372 43.78 337.552 43.18C337.732 42.58 338.032 42.01 338.452 41.47C338.932 40.93 339.502 40.66 340.162 40.66C340.402 40.66 340.522 40.75 340.522 40.93C340.522 40.99 340.492 41.05 340.432 41.11C340.432 41.11 340.432 41.14 340.432 41.2C340.372 41.32 340.342 41.44 340.342 41.56C340.342 41.8 340.492 41.92 340.792 41.92C340.972 41.92 341.182 41.89 341.422 41.83C341.722 41.77 342.022 41.65 342.322 41.47C342.922 41.17 343.612 40.81 344.392 40.39C345.172 39.91 346.042 39.43 347.002 38.95L348.352 36.25C348.712 35.59 349.132 35.14 349.612 34.9C350.092 34.6 350.542 34.45 350.962 34.45C351.622 34.45 352.192 34.57 352.672 34.81C353.212 34.99 353.692 35.23 354.112 35.53C354.772 35.23 355.462 34.96 356.182 34.72C356.962 34.42 357.712 34.21 358.432 34.09C360.712 33.25 363.082 32.59 365.542 32.11C368.002 31.57 370.432 31.3 372.832 31.3C374.152 31.3 375.502 31.48 376.882 31.84C378.262 32.2 378.952 32.77 378.952 33.55C378.952 33.79 378.712 33.91 378.232 33.91C377.272 33.91 376.162 33.79 374.902 33.55C373.702 33.31 372.502 33.19 371.302 33.19C369.802 33.19 368.362 33.28 366.982 33.46C365.602 33.58 364.312 33.79 363.112 34.09C364.072 34.51 364.852 35.23 365.452 36.25C366.112 37.27 366.442 38.56 366.442 40.12C366.442 41.8 366.022 43.81 365.182 46.15C364.402 48.49 363.322 50.89 361.942 53.35C360.622 55.81 359.092 58.12 357.352 60.28C355.612 62.38 353.812 64.09 351.952 65.41C350.092 66.73 348.292 67.39 346.552 67.39ZM347.542 65.5C348.802 65.5 350.092 64.93 351.412 63.79C352.792 62.65 354.142 61.21 355.462 59.47C356.782 57.73 357.952 55.93 358.972 54.07C359.452 53.23 359.992 52.09 360.592 50.65C361.252 49.21 361.792 47.68 362.212 46.06C362.692 44.44 362.932 42.97 362.932 41.65C362.932 40.45 362.662 39.46 362.122 38.68C361.642 37.84 360.712 37.42 359.332 37.42C358.672 37.42 357.832 37.6 356.812 37.96C355.792 38.32 354.712 38.74 353.572 39.22C353.332 39.46 353.092 39.73 352.852 40.03C352.672 40.27 352.522 40.54 352.402 40.84C351.262 42.94 350.122 45.28 348.982 47.86C347.842 50.38 346.882 52.84 346.102 55.24C345.382 57.64 345.022 59.74 345.022 61.54C345.022 64.18 345.862 65.5 347.542 65.5ZM381.171 68.83C379.251 68.83 377.931 68.38 377.211 67.48C376.491 66.58 376.131 65.38 376.131 63.88C376.131 61.96 376.221 59.5 376.401 56.5C376.581 53.5 376.671 50.62 376.671 47.86C376.671 44.74 376.491 42.49 376.131 41.11C375.771 39.73 375.081 39.04 374.061 39.04C373.821 39.04 373.551 39.1 373.251 39.22C372.951 39.34 372.651 39.4 372.351 39.4C371.691 39.4 371.361 39.16 371.361 38.68C371.361 38.44 371.751 38.2 372.531 37.96C373.311 37.66 374.181 37.42 375.141 37.24C376.161 37.06 377.031 36.97 377.751 36.97C378.891 36.97 379.731 37.09 380.271 37.33C380.871 37.57 381.261 38.17 381.441 39.13C381.681 40.03 381.801 41.56 381.801 43.72C381.801 46.42 381.651 49.6 381.351 53.26C381.111 56.92 380.811 60.25 380.451 63.25C380.811 61.69 381.531 59.83 382.611 57.67C383.691 55.45 384.921 53.17 386.301 50.83C387.741 48.43 389.151 46.21 390.531 44.17C391.911 42.07 393.081 40.3 394.041 38.86C395.061 37.42 395.661 36.58 395.841 36.34C396.621 35.32 397.491 34.81 398.451 34.81C399.291 34.81 399.981 35.08 400.521 35.62C401.061 36.1 401.331 36.49 401.331 36.79C401.271 37.21 400.791 37.78 399.891 38.5C399.051 39.16 398.211 39.73 397.371 40.21C396.351 40.75 395.181 41.77 393.861 43.27C392.601 44.71 391.281 46.42 389.901 48.4C388.581 50.38 387.321 52.48 386.121 54.7C384.981 56.92 384.051 59.08 383.331 61.18C382.671 63.28 382.341 65.11 382.341 66.67C382.341 66.91 382.341 67.15 382.341 67.39C382.401 67.57 382.431 67.78 382.431 68.02C382.431 68.56 382.011 68.83 381.171 68.83Z" fill="white" fill-opacity="0.8"/>
</svg>
